Coordinates
version=1
nRows=11
nColumns=63
inDegrees=yes

Units are S.I. units (second, meters, Newtons, ...)
If the header above contains a line with 'inDegrees', this indicates whether rotational values are in degrees (yes) or radians (no).

endheader
time	pelvis_tilt	pelvis_list	pelvis_rotation	pelvis_tx	pelvis_ty	pelvis_tz	hip_flexion_r	hip_adduction_r	hip_rotation_r	knee_angle_r	knee_angle_r_beta	ankle_angle_r	subtalar_angle_r	mtp_angle_r	hip_flexion_l	hip_adduction_l	hip_rotation_l	knee_angle_l	knee_angle_l_beta	ankle_angle_l	subtalar_angle_l	mtp_angle_l	L5_S1_Flex_Ext	L5_S1_Lat_Bending	L5_S1_axial_rotation	L4_L5_Flex_Ext	L4_L5_Lat_Bending	L4_L5_axial_rotation	L3_L4_Flex_Ext	L3_L4_Lat_Bending	L3_L4_axial_rotation	L2_L3_Flex_Ext	L2_L3_Lat_Bending	L2_L3_axial_rotation	L1_L2_Flex_Ext	L1_L2_Lat_Bending	L1_L2_axial_rotation	L1_T12_Flex_Ext	L1_T12_Lat_Bending	L1_T12_axial_rotation	Abs_r3	Abs_r2	Abs_r1	Abs_t1	Abs_t2	neck_flexion	neck_bending	neck_rotation	arm_flex_r	arm_add_r	arm_rot_r	elbow_flex_r	pro_sup_r	wrist_flex_r	wrist_dev_r	arm_flex_l	arm_add_l	arm_rot_l	elbow_flex_l	pro_sup_l	wrist_flex_l	wrist_dev_l
      0.00000000	     -6.25123554	     -5.96619425	     75.64119576	      0.25375880	      0.43108136	      0.94758816	      2.56486579	     -0.34254832	     -8.81398199	      3.02375531	      0.05277449	     15.58772071	      9.87054198	      0.00000000	      4.13823823	      1.55403143	    -14.53745837	      6.02632420	      0.10517920	     15.17583456	     11.37050431	      0.00000000	      0.07805671	     -0.12709641	     -1.00971259	      0.14495912	     -0.16903823	     -1.07281962	      0.12823938	     -0.30902222	     -1.07281962	      0.08921102	     -0.30902222	     -0.88349851	      0.07248346	     -0.25917500	     -0.82039148	      0.04460161	     -0.19687234	     -0.75728444	      0.55755130	     -1.43774003	     -5.61571849	      0.00000000	      0.00000000	     24.98054900	      1.26583502	      4.62483794	     18.49079453	    -14.68736363	     69.44671569	     56.51307405	     78.43798954	     11.95240437	      2.96441746	     13.21410584	    -21.90932421	     58.45932684	     65.82999644	     43.62116093	      2.97524420	     22.97138958
      0.01694915	     -5.71515822	     -6.00242158	     76.79220887	      0.25267746	      0.43111225	      0.94530252	      2.26428596	      0.27131382	     -8.61882626	      2.59897659	      0.04536070	     15.78162579	      8.02669296	      0.00000000	      4.04489468	      1.16151243	    -11.83793228	      5.96011132	      0.10402357	     15.77839987	     10.34954197	      0.00000000	      0.07432116	     -0.06700560	     -1.20744583	      0.13802183	     -0.08911745	     -1.28291119	      0.12210224	     -0.16291742	     -1.28291119	      0.08494166	     -0.16291742	     -1.05651510	      0.06901463	     -0.13663782	     -0.98104973	      0.04246711	     -0.10379167	     -0.90558437	      0.53086864	     -0.75798075	     -6.71545146	      0.00000000	      0.00000000	     24.97704082	      0.86766286	      4.20244508	     17.96998664	    -14.84277145	     67.53608511	     56.98961859	     83.78162849	     12.27068727	      3.52184907	     12.24493523	    -21.62094583	     57.56788061	     66.39246617	     43.11314714	      0.56080668	     22.40366706
      0.03389831	     -5.15584047	     -5.93456828	     77.65575758	      0.25164725	      0.43140717	      0.94348753	      1.90468548	      0.85026112	     -8.90535668	      2.24961553	      0.03926320	     15.78492470	      7.28425435	      0.00000000	      3.80888338	      0.68355177	    -10.74195277	      5.91268380	      0.10319580	     16.19816324	     10.61317753	      0.00000000	      0.05051248	     -0.00113143	     -1.34628911	      0.09380673	     -0.00150480	     -1.43043218	      0.08298696	     -0.00275096	     -1.43043218	      0.05773072	     -0.00275096	     -1.17800297	      0.04690589	     -0.00230721	     -1.09385990	      0.02886283	     -0.00175259	     -1.00971683	      0.36080561	     -0.01279897	     -7.48765616	      0.00000000	      0.00000000	     24.96288850	      0.34847494	      3.84286498	     17.95063956	    -15.16050594	     67.25295900	     57.34702054	     84.49733070	     11.96197665	      4.08366285	     12.07900523	    -21.24785663	     57.57809389	     66.31086865	     43.14693485	      0.03863352	     21.91806810
      0.05084746	     -4.81371446	     -5.94106534	     78.40922500	      0.25092384	      0.43141058	      0.94191848	      1.66066062	      1.28114941	     -7.77689537	      1.88691410	      0.03293286	     15.42508072	      4.58400807	      0.00000000	      3.74869344	      0.42009995	     -9.05656575	      5.99565307	      0.10464389	     16.26613258	      9.43061149	      0.00000000	      0.04747487	      0.04007664	     -1.45791188	      0.08816559	      0.05330193	     -1.54903137	      0.07799647	      0.09744234	     -1.54903137	      0.05425903	      0.09744234	     -1.27567290	      0.04408517	      0.08172429	     -1.18455340	      0.02712714	      0.06207872	     -1.09343391	      0.33910827	      0.45335497	     -8.10846851	      0.00000000	      0.00000000	     24.96940554	      0.03562142	      3.60201769	     17.49620005	    -15.30046158	     66.20183722	     57.68237233	     85.64652124	     11.98653572	      4.82276554	     12.55463033	    -21.22157367	     58.85843699	     66.45807123	     42.88671062	     -1.27943303	     21.46960024
      0.06779661	     -4.46444053	     -5.92462141	     78.99004332	      0.25015368	      0.43153593	      0.94069459	      1.46873691	      1.65690509	     -8.07100628	      1.67530758	      0.02923963	     15.24677736	      4.09373855	      0.00000000	      3.65181220	      0.08160523	     -8.86381728	      6.09357050	      0.10635287	     16.33321040	      9.73728241	      0.00000000	      0.03774021	      0.08756577	     -1.56731209	      0.07008735	      0.11646247	     -1.66526909	      0.06200340	      0.21290741	     -1.66526909	      0.04313329	      0.21290741	     -1.37139808	      0.03504556	      0.17856412	     -1.27344107	      0.02156476	      0.13563938	     -1.17548406	      0.26957457	      0.99056149	     -8.71691963	      0.00000000	      0.00000000	     24.98127996	     -0.23947611	      3.68119071	     17.46095638	    -15.44649315	     66.16727300	     57.71187403	     85.55726429	     12.01405131	      4.67626643	     13.06471536	    -21.03710259	     59.67409000	     66.23203414	     42.94798883	     -1.10656258	     22.02164845
      0.08474576	     -4.22405975	     -5.90856142	     79.47569903	      0.24968059	      0.43162551	      0.93980011	      1.34633281	      1.93074196	     -8.30989529	      1.55532456	      0.02714553	     15.01109217	      3.59858046	      0.00000000	      3.59521888	     -0.19534490	     -8.99206055	      6.23214363	      0.10877143	     16.27279672	     10.25007069	      0.00000000	      0.03065306	      0.11646082	     -1.64451029	      0.05692579	      0.15489289	     -1.74729218	      0.05035991	      0.28316284	     -1.74729218	      0.03503338	      0.28316284	     -1.43894650	      0.02846443	      0.23748690	     -1.33616461	      0.01751516	      0.18039781	     -1.23338272	      0.21895172	      1.31742808	     -9.14627288	      0.00000000	      0.00000000	     25.02538147	     -0.44486764	      3.56339326	     17.38194620	    -15.50000889	     66.19601456	     57.64031249	     84.98694829	     11.84744741	      4.42196195	     13.97511180	    -20.99946022	     61.09862505	     65.93557549	     43.04172881	     -0.41966153	     22.61528717
      0.10169492	     -4.04977321	     -5.91315115	     79.73372808	      0.24939020	      0.43169602	      0.93915449	      1.25712373	      2.13868774	     -8.14529999	      1.41661548	      0.02472460	     14.79110446	      2.95755415	      0.00000000	      3.60414601	     -0.46809294	    -10.06183470	      6.44561865	      0.11249727	     16.33080909	     11.68655756	      0.00000000	      0.02715867	      0.13962597	     -1.66887580	      0.05043637	      0.18570254	     -1.77318053	      0.04461899	      0.33948658	     -1.77318053	      0.03103965	      0.33948658	     -1.46026632	      0.02521955	      0.28472527	     -1.35596158	      0.01551847	      0.21628062	     -1.25165685	      0.19399170	      1.57947687	     -9.28178651	      0.00000000	      0.00000000	     25.10316752	     -0.73910970	      3.34016943	     17.06294585	    -15.48810578	     65.53611370	     57.46306321	     85.00796206	     12.38085569	      4.11175630	     14.68737636	    -20.80458443	     62.02786515	     65.42652471	     42.97361799	      0.90420285	     23.39162469
      0.11864407	     -3.91694656	     -5.90824362	     79.90230189	      0.24917534	      0.43174695	      0.93871586	      1.20216327	      2.29389428	     -8.29019055	      1.32991442	      0.02321139	     14.67118248	      2.75465072	      0.00000000	      3.58007348	     -0.63983095	    -10.36582232	      6.56142367	      0.11451845	     16.25009099	     11.97780317	      0.00000000	      0.02486588	      0.15956510	     -1.68289949	      0.04617843	      0.21222158	     -1.78808071	      0.04085216	      0.38796658	     -1.78808071	      0.02841922	      0.38796658	     -1.47253706	      0.02309046	      0.32538515	     -1.36735584	      0.01420836	      0.24716634	     -1.26217462	      0.17761450	      1.80503233	     -9.35978211	      0.00000000	      0.00000000	     25.17799626	     -0.84599775	      3.46494806	     17.02131677	    -15.57715496	     65.64162747	     57.51380336	     84.78914147	     11.88931050	      4.09924496	     15.36681836	    -20.73445066	     63.10148502	     65.11439301	     42.94868400	      1.69435221	     23.62265234
      0.13559322	     -3.84213480	     -5.90224712	     79.94789861	      0.24909207	      0.43184033	      0.93844356	      1.16502361	      2.37735056	     -8.39528474	      1.26275989	      0.02203932	     14.66256061	      2.78353263	      0.00000000	      3.57252448	     -0.77500730	    -11.03144436	      6.66328501	      0.11629626	     16.19008084	     12.73206041	      0.00000000	      0.02523598	      0.17145709	     -1.66186894	      0.04686574	      0.22803793	     -1.76573575	      0.04146020	      0.41688076	     -1.76573575	      0.02884220	      0.41688076	     -1.45413532	      0.02343413	      0.34963529	     -1.35026851	      0.01441984	      0.26558703	     -1.24640170	      0.18025810	      1.93955686	     -9.24281648	      0.00000000	      0.00000000	     25.21974324	     -0.99772092	      3.42127744	     16.81853718	    -15.60569934	     65.25354433	     57.49887378	     85.09151707	     11.74140796	      4.11983261	     15.60663408	    -20.58572571	     63.49132987	     64.75123664	     42.82105017	      2.32049979	     23.25172121
      0.15254237	     -3.76425605	     -5.86512062	     79.92250496	      0.24887950	      0.43201744	      0.93838242	      1.11198914	      2.43213294	     -8.85743823	      1.23163661	      0.02149611	     14.60861385	      3.34260826	      0.00000000	      3.51814753	     -0.83485113	    -10.94995578	      6.67498933	      0.11650054	     16.06539413	     12.40772770	      0.00000000	      0.01445105	      0.18518059	     -1.63470982	      0.02683705	      0.24629018	     -1.73687919	      0.02374163	      0.45024808	     -1.73687919	      0.01651611	      0.45024808	     -1.43037110	      0.01341925	      0.37762025	     -1.32820173	      0.00825733	      0.28684473	     -1.22603237	      0.10322241	      2.09479982	     -9.09176563	      0.00000000	      0.00000000	     25.30269295	     -1.13128398	      3.41861995	     17.01466520	    -15.77047096	     65.78433207	     57.59933601	     83.51936236	     11.13896145	      4.68769631	     15.72806248	    -20.49439086	     63.85851847	     64.53064054	     43.12883792	      2.12231472	     21.78036627
      0.16949153	     -3.87372604	     -5.93182060	     79.73066884	      0.24928357	      0.43199483	      0.93825099	      1.19349952	      2.35681752	     -8.19514749	      1.22346263	      0.02135345	     14.27543886	      2.47528707	      0.00000000	      3.61201198	     -0.82872429	    -11.98716047	      6.75955988	      0.11797658	     16.17265631	     13.60672376	      0.00000000	      0.02847203	      0.17570394	     -1.63290078	      0.05287541	      0.23368624	     -1.73495708	      0.04677670	      0.42720657	     -1.73495708	      0.03254068	      0.42720657	     -1.42878818	      0.02643913	      0.35829548	     -1.32673189	      0.01626892	      0.27216541	     -1.22467559	      0.20337287	      1.98759815	     -9.08170428	      0.00000000	      0.00000000	     25.17924642	     -0.87691501	      3.70095599	     16.82641430	    -15.52058270	     65.12473499	     57.51511983	     85.42685360	     11.77522795	      5.10257005	     14.97129622	    -20.46145149	     62.60372563	     64.42816861	     43.43709207	      2.13836174	     21.23450593
